<?xml version="1.0" encoding="iso-8859-1"?>
<!-- Generator: Adobe Illustrator 19.0.0, SVG Export Plug-In . SVG Version: 6.00 Build 0)  -->
<svg version="1.1" id="Capa_1" xmlns="http://www.w3.org/2000/svg" xmlns:xlink="http://www.w3.org/1999/xlink" x="0px" y="0px"
	 viewBox="0 0 512 512" style="enable-background:new 0 0 512 512;" xml:space="preserve">
<path style="fill:#0094D4;" d="M136.534,196.265V93.867c0-9.425,7.641-17.066,17.066-17.066h341.334
	c9.425,0,17.066,7.641,17.066,17.066v204.8c0,9.425-7.641,17.066-17.066,17.066H375.466L136.534,196.265z"/>
<path style="fill:#F79B4A;" d="M477.867,239.738h-34.135c-4.267,0-7.726,3.459-7.726,7.726v34.135c0,4.267,3.459,7.726,7.726,7.726
	h34.135c4.267,0,7.726-3.459,7.726-7.726v-34.135C485.593,243.197,482.134,239.738,477.867,239.738z M470.141,273.873h-18.682
	V255.19h18.682V273.873z"/>
<path style="fill:#0076B5;" d="M494.934,76.801H474.33c9.425,0,17.066,7.641,17.066,17.066v204.8
	c0,9.425-7.641,17.066-17.066,17.066h20.604c9.425,0,17.066-7.641,17.066-17.066v-204.8C512,84.441,504.359,76.801,494.934,76.801z"
	/>
<rect x="136.53" y="119.47" style="fill:#58565C;" width="375.47" height="42.67"/>
<rect x="491.396" y="119.47" style="fill:#49484D;" width="20.604" height="42.67"/>
<path style="fill:#0076B5;" d="M379.038,175.663H136.534v20.602l238.932,119.468h20.638V192.729
	C396.104,183.304,388.464,175.663,379.038,175.663z"/>
<path style="fill:#00BCE7;" d="M358.4,196.267c9.425,0,17.066,7.641,17.066,17.066v204.8c0,9.425-7.641,17.066-17.066,17.066H17.066
	C7.641,435.199,0,427.559,0,418.133v-204.8c0-9.425,7.641-17.066,17.066-17.066H358.4z"/>
<path style="fill:#0094D4;" d="M358.4,196.267h-20.569c9.425,0,17.066,7.641,17.066,17.066v204.8
	c0,9.425-7.641,17.066-17.066,17.066H358.4c9.425,0,17.066-7.641,17.066-17.066v-204.8
	C375.466,203.908,367.825,196.267,358.4,196.267z"/>
<g>
	<path style="fill:#FFD151;" d="M104.752,298.668H40.313c-3.414,0-6.181-2.767-6.181-6.181v-55.904c0-3.414,2.767-6.181,6.181-6.181
		h64.439c3.414,0,6.181,2.767,6.181,6.181v55.904C110.933,295.9,108.166,298.668,104.752,298.668z"/>
	<path style="fill:#FFD151;" d="M281.596,344.358c6.255-7.089,15.407-11.56,25.604-11.56c18.851,0,34.134,15.283,34.134,34.134
		s-15.283,34.134-34.134,34.134c-10.197,0-19.349-4.471-25.604-11.56V344.358z"/>
</g>
<circle style="fill:#FF2551;" cx="256" cy="366.93" r="34.13"/>
<g>
	<path style="fill:#FFD151;" d="M51.199,333.609H34.131c-4.267,0-7.726,3.459-7.726,7.726c0,4.267,3.459,7.726,7.726,7.726h17.068
		c4.267,0,7.726-3.459,7.726-7.726C58.925,337.068,55.466,333.609,51.199,333.609z"/>
	<path style="fill:#FFD151;" d="M93.866,333.609H76.798c-4.267,0-7.726,3.459-7.726,7.726c0,4.267,3.459,7.726,7.726,7.726h17.068
		c4.267,0,7.726-3.459,7.726-7.726C101.592,337.068,98.133,333.609,93.866,333.609z"/>
	<path style="fill:#FFD151;" d="M136.532,333.609h-17.069c-4.267,0-7.726,3.459-7.726,7.726c0,4.267,3.459,7.726,7.726,7.726h17.069
		c4.267,0,7.726-3.459,7.726-7.726C144.258,337.068,140.799,333.609,136.532,333.609z"/>
	<path style="fill:#FFD151;" d="M179.198,333.609H162.13c-4.267,0-7.726,3.459-7.726,7.726c0,4.267,3.459,7.726,7.726,7.726h17.068
		c4.267,0,7.726-3.459,7.726-7.726C186.924,337.068,183.465,333.609,179.198,333.609z"/>
</g>
<g>
	<path style="fill:#58565C;" d="M85.332,367.741h-51.2c-4.267,0-7.726,3.459-7.726,7.726c0,4.267,3.459,7.726,7.726,7.726h51.2
		c4.267,0,7.726-3.459,7.726-7.726C93.058,371.2,89.599,367.741,85.332,367.741z"/>
	<path style="fill:#58565C;" d="M162.132,367.741h-51.2c-4.267,0-7.726,3.459-7.726,7.726c0,4.267,3.459,7.726,7.726,7.726h51.2
		c4.267,0,7.726-3.459,7.726-7.726C169.858,371.2,166.4,367.741,162.132,367.741z"/>
</g>
<path style="fill:#B6E3EE;" d="M85.332,393.34h-51.2c-4.267,0-7.726,3.459-7.726,7.726c0,4.267,3.459,7.726,7.726,7.726h51.2
	c4.267,0,7.726-3.459,7.726-7.726C93.058,396.799,89.599,393.34,85.332,393.34z"/>
<g>
	<path style="fill:#F79B4A;" d="M110.933,256.809H85.332c-4.267,0-7.726,3.459-7.726,7.726v34.133h15.453v-26.407h17.875V256.809z"
		/>
	<path style="fill:#F79B4A;" d="M59.733,256.809H34.132v15.453h17.875v26.407h15.453v-34.133
		C67.459,260.268,64,256.809,59.733,256.809z"/>
</g>
<g>
</g>
<g>
</g>
<g>
</g>
<g>
</g>
<g>
</g>
<g>
</g>
<g>
</g>
<g>
</g>
<g>
</g>
<g>
</g>
<g>
</g>
<g>
</g>
<g>
</g>
<g>
</g>
<g>
</g>
</svg>
