<?xml version="1.0"?>
<svg xmlns="http://www.w3.org/2000/svg" xmlns:xlink="http://www.w3.org/1999/xlink" xmlns:svgjs="http://svgjs.com/svgjs" version="1.1" width="512" height="512" x="0" y="0" viewBox="0 0 511.999 511.999" style="enable-background:new 0 0 512 512" xml:space="preserve"><g>
<g xmlns="http://www.w3.org/2000/svg">
	<g>
		<path d="M143.022,347.67h16.287h277.692c6.71,0,12.622-4.408,14.538-10.839l59.829-200.888c1.367-4.59,0.485-9.556-2.377-13.396    c-2.863-3.84-7.371-6.102-12.16-6.102H110.789l-20.412-68.54c-1.915-6.43-7.828-10.838-14.538-10.838H15.169    C6.792,37.066,0,43.857,0,52.235c0,8.377,6.792,15.169,15.169,15.169H64.53l20.315,68.211c0.062,0.225,0.127,0.448,0.199,0.668    l53.966,181.202c-30.804,2.072-55.237,27.778-55.237,59.098c0,32.67,26.579,59.249,59.248,59.249h15.059    c6.581,22.563,27.437,39.102,52.097,39.102c24.659,0,45.516-16.538,52.097-39.102h80.482    c6.581,22.563,27.437,39.102,52.097,39.102c24.659,0,45.516-16.538,52.097-39.102h19.543c8.377,0,15.169-6.792,15.169-15.169    c0-8.377-6.792-15.169-15.169-15.169h-19.543c-6.581-22.564-27.437-39.102-52.097-39.102c-24.66,0-45.517,16.538-52.097,39.102    h-80.482c-6.581-22.564-27.437-39.102-52.097-39.102c-24.66,0-45.517,16.538-52.097,39.102h-15.059    c-15.942,0-28.911-12.97-28.911-28.912C114.11,360.64,127.08,347.67,143.022,347.67z M365.546,146.781h110.941l-20.88,70.107    h-90.061V146.781z M365.545,247.226h81.026l-20.879,70.107h-60.147V247.226z M253.304,146.781h81.905v70.107h-81.905V146.781z     M253.303,247.226h81.905v70.107h-81.905V247.226z M222.968,317.333L222.968,317.333h-52.349l-20.879-70.107h73.228V317.333z     M119.826,146.781h103.141v70.107h-82.262L119.826,146.781z M394.854,396.729c13.197,0,23.933,10.736,23.933,23.933    s-10.736,23.933-23.933,23.933s-23.933-10.736-23.933-23.933S381.657,396.729,394.854,396.729z M210.178,396.729    c13.197,0,23.933,10.736,23.933,23.933s-10.736,23.933-23.933,23.933s-23.933-10.736-23.933-23.933    S196.981,396.729,210.178,396.729z" fill="#fffcfc" data-original="#000000" style=""/>
	</g>
</g>
<g xmlns="http://www.w3.org/2000/svg">
</g>
<g xmlns="http://www.w3.org/2000/svg">
</g>
<g xmlns="http://www.w3.org/2000/svg">
</g>
<g xmlns="http://www.w3.org/2000/svg">
</g>
<g xmlns="http://www.w3.org/2000/svg">
</g>
<g xmlns="http://www.w3.org/2000/svg">
</g>
<g xmlns="http://www.w3.org/2000/svg">
</g>
<g xmlns="http://www.w3.org/2000/svg">
</g>
<g xmlns="http://www.w3.org/2000/svg">
</g>
<g xmlns="http://www.w3.org/2000/svg">
</g>
<g xmlns="http://www.w3.org/2000/svg">
</g>
<g xmlns="http://www.w3.org/2000/svg">
</g>
<g xmlns="http://www.w3.org/2000/svg">
</g>
<g xmlns="http://www.w3.org/2000/svg">
</g>
<g xmlns="http://www.w3.org/2000/svg">
</g>
</g></svg>
